<svg preserveAspectRatio="none" width="100%" height="100%" overflow="visible" style="display: block;" viewBox="0 0 142 322" fill="none" xmlns="http://www.w3.org/2000/svg">
<path id="Subtract" d="M60.1617 2.91083C67.1507 -0.970275 74.8498 -0.970275 81.8408 2.91083L120.514 24.3794L133.576 31.9504C138.416 34.7559 140.061 40.9452 137.25 45.7749C134.438 50.6047 128.235 52.2458 123.394 49.4404L84.7548 27.0451C81.0026 24.0994 76.2693 22.342 71.1244 22.342C58.9401 22.342 49.0627 32.1977 49.0627 44.3554C49.0627 56.5131 58.9401 66.3689 71.1244 66.3689C90.4422 66.3689 109.76 66.3684 129.078 66.3689C135.478 66.3689 140.811 70.9241 142 76.9623L141.985 292.746C141.981 300.816 137.178 307.788 129.446 310.948C93.3778 325.684 48.5833 325.684 12.5519 310.948C4.82202 307.79 0.0186506 300.816 0.0186506 292.75L0 47.7283C0 40.4713 3.94742 34.1197 10.8334 30.2961L60.1617 2.91083Z" fill="var(--fill-0, #FF9D87)"/>
</svg>
