<svg preserveAspectRatio="none" width="100%" height="100%" overflow="visible" style="display: block;" viewBox="0 0 18 19" fill="none" xmlns="http://www.w3.org/2000/svg">
<path id="Vector" fill-rule="evenodd" clip-rule="evenodd" d="M9 0C9.55229 0 10 0.447715 10 1V10.216L14.8217 5.7652C15.2275 5.39059 15.8602 5.4159 16.2348 5.82172C16.6094 6.22754 16.5841 6.8602 16.1783 7.2348L9.67828 13.2348C9.29522 13.5884 8.70478 13.5884 8.32172 13.2348L1.82172 7.2348C1.4159 6.8602 1.39059 6.22754 1.7652 5.82172C2.1398 5.4159 2.77246 5.39059 3.17828 5.7652L8 10.216V1C8 0.447715 8.44772 0 9 0ZM1 12C1.55228 12 2 12.4477 2 13V17H16V13C16 12.4477 16.4477 12 17 12C17.5523 12 18 12.4477 18 13V18C18 18.5523 17.5523 19 17 19H1C0.447715 19 0 18.5523 0 18V13C0 12.4477 0.447715 12 1 12Z" fill="var(--fill-0, #2B2926)"/>
</svg>
