<svg preserveAspectRatio="none" width="100%" height="100%" overflow="visible" style="display: block;" viewBox="0 0 20 20" fill="none" xmlns="http://www.w3.org/2000/svg">
<path id="Vector" fill-rule="evenodd" clip-rule="evenodd" d="M3.6 2.8C3.6 1.2536 4.8536 0 6.4 0H13.6C15.1464 0 16.4 1.2536 16.4 2.8V3.709C18.4597 4.16559 20 6.00291 20 8.2V11.8C20 14.3071 17.9943 16.3457 15.5 16.3989V17.2C15.5 18.7464 14.2464 20 12.7 20H7.3C5.7536 20 4.5 18.7464 4.5 17.2V16.3989C2.00567 16.3457 0 14.3071 0 11.8V8.2C0 6.00291 1.54033 4.16559 3.6 3.709V2.8ZM5.6 3.6H14.4V2.8C14.4 2.35817 14.0418 2 13.6 2H6.4C5.95817 2 5.6 2.35817 5.6 2.8V3.6ZM4.5 14.3981V13.6C4.5 12.0536 5.7536 10.8 7.3 10.8H12.7C14.2464 10.8 15.5 12.0536 15.5 13.6V14.3981C16.8896 14.3456 18 13.2025 18 11.8V8.2C18 6.76406 16.8359 5.6 15.4 5.6H4.6C3.16406 5.6 2 6.76406 2 8.2V11.8C2 13.2025 3.1104 14.3456 4.5 14.3981ZM13.05 7.75C13.05 7.19772 13.4977 6.75 14.05 6.75C15.5964 6.75 16.85 8.0036 16.85 9.55C16.85 10.1023 16.4023 10.55 15.85 10.55C15.2977 10.55 14.85 10.1023 14.85 9.55C14.85 9.10817 14.4918 8.75 14.05 8.75C13.4977 8.75 13.05 8.30228 13.05 7.75ZM7.3 12.8C6.85817 12.8 6.5 13.1582 6.5 13.6V17.2C6.5 17.6418 6.85817 18 7.3 18H12.7C13.1418 18 13.5 17.6418 13.5 17.2V13.6C13.5 13.1582 13.1418 12.8 12.7 12.8H7.3Z" fill="var(--fill-0, #2B2926)"/>
</svg>
